<?xml version="1.0" encoding="iso-8859-1"?>
<!-- Uploaded to: SVG Repo, www.svgrepo.com, Generator: SVG Repo Mixer Tools -->
<svg fill="#000000" version="1.1" id="Layer_1" xmlns="http://www.w3.org/2000/svg" xmlns:xlink="http://www.w3.org/1999/xlink" 
	 viewBox="0 0 512 512" xml:space="preserve">
<g>
	<g>
		<rect x="111.304" y="55.652" width="178.087" height="33.391"/>
	</g>
</g>
<g>
	<g>
		<rect x="66.783" y="89.044" width="44.522" height="33.391"/>
	</g>
</g>
<g>
	<g>
		<rect x="33.391" y="122.435" width="33.391" height="44.522"/>
	</g>
</g>
<g>
	<g>
		<rect x="100.174" y="233.739" width="44.522" height="44.522"/>
	</g>
</g>
<g>
	<g>
		<rect x="33.391" y="345.043" width="33.391" height="44.522"/>
	</g>
</g>
<g>
	<g>
		<rect x="66.783" y="389.565" width="44.522" height="33.391"/>
	</g>
</g>
<g>
	<g>
		<rect x="111.304" y="422.957" width="178.087" height="33.391"/>
	</g>
</g>
<g>
	<g>
		<rect x="289.391" y="389.565" width="44.522" height="33.391"/>
	</g>
</g>
<g>
	<g>
		<rect x="333.913" y="345.043" width="33.391" height="44.522"/>
	</g>
</g>
<g>
	<g>
		<rect x="367.304" y="278.261" width="33.391" height="66.783"/>
	</g>
</g>
<g>
	<g>
		<rect x="367.304" y="166.957" width="33.391" height="66.783"/>
	</g>
</g>
<g>
	<g>
		<rect x="333.913" y="122.435" width="33.391" height="44.522"/>
	</g>
</g>
<g>
	<g>
		<rect x="289.391" y="89.044" width="44.522" height="33.391"/>
	</g>
</g>
<g>
	<g>
		<rect x="400.696" y="133.565" width="77.913" height="33.391"/>
	</g>
</g>
<g>
	<g>
		<rect x="478.609" y="166.957" width="33.391" height="66.783"/>
	</g>
</g>
<g>
	<g>
		<rect x="445.217" y="233.739" width="33.391" height="44.522"/>
	</g>
</g>
<g>
	<g>
		<rect x="478.609" y="278.261" width="33.391" height="66.783"/>
	</g>
</g>
<g>
	<g>
		<rect x="400.696" y="345.043" width="77.913" height="33.391"/>
	</g>
</g>
<g>
	<g>
		<rect y="166.957" width="33.391" height="178.087"/>
	</g>
</g>
</svg>